<?xml version="1.0" standalone="no"?>
<!DOCTYPE svg PUBLIC "-//W3C//DTD SVG 20010904//EN"
 "http://www.w3.org/TR/2001/REC-SVG-20010904/DTD/svg10.dtd">
<svg version="1.0" xmlns="http://www.w3.org/2000/svg"
 width="128.000000pt" height="128.000000pt" viewBox="0 0 128.000000 128.000000"
 preserveAspectRatio="xMidYMid meet">
<metadata>
Created by potrace 1.11, written by Peter Selinger 2001-2013
</metadata>
<g transform="translate(0.000000,128.000000) scale(0.100000,-0.100000)"
fill="#000000" stroke="none">
<path d="M471 1264 c-174 -47 -323 -171 -406 -338 -24 -50 -50 -115 -56 -145
-16 -74 -6 -283 16 -341 26 -70 72 -152 115 -204 22 -27 40 -52 40 -58 0 -5 5
-6 10 -3 6 3 10 2 10 -3 0 -12 82 -70 146 -104 29 -15 87 -37 130 -49 105 -29
299 -24 386 10 171 66 319 221 389 406 18 49 23 85 25 190 3 114 0 139 -20
202 -70 216 -243 383 -452 437 -78 20 -259 20 -333 0z"/>
</g>
</svg>
